<svg xmlns="http://www.w3.org/2000/svg" xmlns:xlink="http://www.w3.org/1999/xlink" viewBox="0 0 500 500" width="500" height="500" preserveAspectRatio="xMidYMid meet" style="width: 100%; height: 100%; transform: translate3d(0px, 0px, 0px); content-visibility: visible;"><defs><clipPath id="__lottie_element_10140"><rect width="500" height="500" x="0" y="0"/></clipPath></defs><g clip-path="url(#__lottie_element_10140)"><g transform="matrix(-0.312325119972229,0.3904523253440857,-0.3904523253440857,-0.312325119972229,243.5187530517578,210.29759216308594)" opacity="1" style="display: block;"><g opacity="1" transform="matrix(1,0,0,1,-7,-11)"><path stroke-linecap="butt" stroke-linejoin="miter" fill-opacity="0" stroke-miterlimit="4" stroke="rgb(247,162,4)" stroke-opacity="1" stroke-width="30" d=" M0,-134 C-74.00599670410156,-134 -134,-74.00599670410156 -134,0 C-134,74.00599670410156 -74.00599670410156,134 0,134 C47.49700164794922,134 89.22200012207031,109.28800201416016 113.0199966430664,72.02100372314453"/></g></g><g transform="matrix(-0.633379340171814,-0.14604993164539337,0.14604993164539337,-0.633379340171814,247.1728973388672,203.01048278808594)" opacity="1" style="display: block;"><g opacity="1" transform="matrix(1,0,0,1,-7,-11)"><path stroke-linecap="butt" stroke-linejoin="miter" fill-opacity="0" stroke-miterlimit="4" stroke="rgb(136,9,209)" stroke-opacity="1" stroke-width="25" d=" M0,-134 C-74.00599670410156,-134 -134,-74.00599670410156 -134,0 C-134,74.00599670410156 -74.00599670410156,134 0,134 C47.49700164794922,134 89.22200012207031,109.28800201416016 113.0199966430664,72.02100372314453"/></g></g><g transform="matrix(-0.17569933831691742,-0.7804676294326782,0.7804676294326782,-0.17569933831691742,257.3552551269531,203.60403442382812)" opacity="1" style="display: block;"><g opacity="1" transform="matrix(1,0,0,1,-7,-11)"><path stroke-linecap="butt" stroke-linejoin="miter" fill-opacity="0" stroke-miterlimit="4" stroke="rgb(11,83,218)" stroke-opacity="1" stroke-width="23" d=" M0,-134 C-74.00599670410156,-134 -134,-74.00599670410156 -134,0 C-134,74.00599670410156 -74.00599670410156,134 0,134 C47.49700164794922,134 89.22200012207031,109.28800201416016 113.0199966430664,72.02100372314453"/></g></g><g transform="matrix(0.7841410040855408,-0.6205826997756958,0.6205826997756958,0.7841410040855408,262.3153991699219,215.28147888183594)" opacity="1" style="display: block;"><g opacity="1" transform="matrix(1,0,0,1,-7,-11)"><path stroke-linecap="butt" stroke-linejoin="miter" fill-opacity="0" stroke-miterlimit="4" stroke="rgb(236,50,61)" stroke-opacity="1" stroke-width="22" d=" M0,-134 C-74.00599670410156,-134 -134,-74.00599670410156 -134,0 C-134,74.00599670410156 -74.00599670410156,134 0,134 C47.49700164794922,134 89.22200012207031,109.28800201416016 113.0199966430664,72.02100372314453"/></g></g><g fill="rgb(26,24,29)" stroke="rgb(0,0,0)" stroke-width="0.00999999977648" font-size="60" font-family="CCSignLanguage" font-style="normal" font-weight="700" aria-label="Loading...&#13;" transform="matrix(1.2999999523162842,0,0,1.2999999523162842,249.96620178222656,423.50030517578125)" opacity="1" style="display: block;"><g stroke-linecap="butt" stroke-linejoin="round" stroke-miterlimit="4" transform="matrix(1,0,0.11380106955766678,1,-133.11000061035156,18.668968200683594)" opacity="1" style="display: inherit;"><g><g transform="matrix(1,0,0,1,0,0)" opacity="1" style="display: block;"><path d=" M31,-4.17 C37.52,-4.65 32.03,-14.8 26.04,-14.32 C21.39,-13.96 16.62,-14.26 12.15,-12.63 C12.15,-18.43 12.75,-23.45 13.6,-28.82 C13.96,-31.18 14.93,-33.17 15.41,-35.47 C16.32,-39.94 6.34,-48.1 4.89,-41.09 C2.66,-30.09 1.99,-19.22 2.54,-7.61 C2.78,-3.08 7.98,3.81 12.09,1.87 C15.23,0.42 18.07,-0.97 21.09,-2.05 C24.11,-3.08 27.25,-3.87 31,-4.17z"/><g opacity="1" transform="matrix(0.6000000238418579,0,0,0.6000000238418579,0,0)"/></g></g></g><g stroke-linecap="butt" stroke-linejoin="round" stroke-miterlimit="4" transform="matrix(1,0,0.11380106955766678,1,-100.2300033569336,18.668968200683594)" opacity="1" style="display: inherit;"><g><g transform="matrix(1,0,0,1,0,0)" opacity="1" style="display: block;"><path d=" M31.9,-8.52 C34.5,-15.89 33.66,-20.24 30.64,-25.56 C27.49,-31.12 23.08,-34.99 16.44,-34.5 C9.73,-33.96 2.18,-23.14 1.63,-17.89 C1.21,-13.29 1.03,-11.48 2.78,-7.07 C4.95,-1.75 13.96,2.42 19.82,1.33 C26.65,0.12 30.03,-3.08 31.9,-8.52z M22.72,-23.08 C25.44,-16.19 20.85,-9.06 13.72,-7.55 C10.7,-6.95 10.88,-11.96 11.54,-14.2 C12.63,-18.01 16.31,-23.26 19.88,-24.17 C21.15,-24.47 22.05,-24.71 22.72,-23.08z"/><g opacity="1" transform="matrix(0.6000000238418579,0,0,0.6000000238418579,0,0)"/></g></g></g><g stroke-linecap="butt" stroke-linejoin="round" stroke-miterlimit="4" transform="matrix(1,0,0.11380106955766678,1,-66.09000396728516,18.668968200683594)" opacity="1" style="display: inherit;"><g><g transform="matrix(1,0,0,1,0,0)" opacity="1" style="display: block;"><path d=" M29.67,-25.86 C29.91,-29.97 22.05,-36.74 18.43,-36.86 C14.38,-37.04 10.45,-35.59 7.92,-32.87 C5.68,-30.45 4.23,-28.1 5.02,-26.28 C5.68,-24.77 9.97,-25.92 12.75,-27.67 C14.14,-28.52 19.64,-28.88 19.4,-26.35 C19.22,-24.71 18.97,-23.08 18.73,-21.57 C17.28,-22.18 15.77,-22.78 14.26,-23.38 C8.1,-25.92 1.99,-21.63 1.39,-15.17 C0.91,-10.21 1.21,-8.34 2.54,-4.71 C3.87,-0.97 8.88,2.78 12.33,2.48 C15.89,2.18 18.91,0.42 21.27,-1.39 C21.39,-1.33 21.45,-1.21 21.57,-1.09 C23.57,0.72 26.65,1.81 28.58,-1.15 C29.06,-1.87 29.19,-2.42 29.12,-3.32 C28.64,-10.03 29.06,-14.99 29.67,-25.86z M17.34,-12.27 C16.19,-11.36 15.05,-10.45 13.84,-9.67 C11.66,-8.16 9.85,-6.28 9.31,-7.37 C8.46,-8.88 10.03,-11.66 12.02,-13.05 C13.11,-13.78 15.41,-12.99 17.34,-12.27z"/><g opacity="1" transform="matrix(0.6000000238418579,0,0,0.6000000238418579,0,0)"/></g></g></g><g stroke-linecap="butt" stroke-linejoin="round" stroke-miterlimit="4" transform="matrix(1,0,0.11380106955766678,1,-35.189998626708984,18.668968200683594)" opacity="1" style="display: inherit;"><g><g transform="matrix(1,0,0,1,0,0)" opacity="1" style="display: block;"><path d=" M31.97,-39.88 C32.87,-43.38 22.3,-56.13 21.33,-45.74 C20.85,-40.61 20.06,-34.93 19.58,-29.25 C18.07,-29.85 16.62,-30.33 15.23,-30.7 C8.4,-32.51 3.44,-27.01 2.3,-22.3 C0.42,-14.44 0.72,-8.76 2.24,-4.71 C3.75,-0.54 9.18,3.2 12.81,2.9 C16.98,2.54 19.94,0.18 22.54,-2.66 C26.16,1.45 31.9,3.38 30.76,-2.54 C29.67,-7.98 29.55,-12.02 29.61,-16.56 C29.67,-19.64 29.85,-31.6 31.97,-39.88z M19.03,-16.56 C17.34,-12.51 14.68,-9.31 13.6,-8.76 C11.72,-7.8 10.15,-6.83 9.85,-7.86 C9,-10.94 10.15,-16.25 14.38,-18.79 C15.71,-19.58 17.4,-19.16 19.03,-18.49 C19.03,-18.49 19.03,-16.56 19.03,-16.56z"/><g opacity="1" transform="matrix(0.6000000238418579,0,0,0.6000000238418579,0,0)"/></g></g></g><g stroke-linecap="butt" stroke-linejoin="round" stroke-miterlimit="4" transform="matrix(1,0,0.11380106955766678,1,-2.7900006771087646,18.668968200683594)" opacity="1" style="display: inherit;"><g><g transform="matrix(1,0,0,1,0,0)" opacity="1" style="display: block;"><path d=" M12.69,-33.17 C17.83,-34.08 14.08,-48.22 7.01,-47.31 C-0.36,-46.35 2.36,-31.36 12.69,-33.17z M13.9,-21.39 C15.11,-24.65 4.41,-37.77 2.96,-27.31 C1.99,-20.42 2.42,-13.11 3.26,-7.31 C4.29,-0.66 14.38,6.16 13.05,-1.93 C11.9,-8.7 12.33,-17.1 13.9,-21.39z"/><g opacity="1" transform="matrix(0.6000000238418579,0,0,0.6000000238418579,0,0)"/></g></g></g><g stroke-linecap="butt" stroke-linejoin="round" stroke-miterlimit="4" transform="matrix(1,0,0.11380106955766678,1,12.93000316619873,18.668968200683594)" opacity="1" style="display: inherit;"><g><g transform="matrix(1,0,0,1,0,0)" opacity="1" style="display: block;"><path d=" M30.88,-24.05 C31.97,-28.52 23.69,-36.01 19.34,-34.93 C16.92,-34.32 14.74,-31.36 12.87,-27.61 C11.84,-32.21 3.56,-39.28 2.42,-30.39 C1.45,-22.9 1.87,-12.87 2.72,-6.47 C3.75,1.39 14.08,6.71 12.93,-0.97 C12.87,-1.57 12.87,-2.48 12.93,-3.08 C14.2,-11.42 17.52,-17.7 19.94,-20.79 C19.4,-15.89 19.46,-11.06 19.64,-9.18 C20.79,1.27 31.48,5.44 29.97,-2.72 C29.67,-4.17 29.25,-6.1 29.25,-8.64 C29.19,-11.96 29.55,-18.73 30.88,-24.05z"/><g opacity="1" transform="matrix(0.6000000238418579,0,0,0.6000000238418579,0,0)"/></g></g></g><g stroke-linecap="butt" stroke-linejoin="round" stroke-miterlimit="4" transform="matrix(1,0,0.11380106955766678,1,44.90999221801758,18.668968200683594)" opacity="1" style="display: inherit;"><g><g transform="matrix(1,0,0,1,0,0)" opacity="1" style="display: block;"><path d=" M31.18,-26.83 C30.88,-32.99 18.31,-43.38 19.28,-31.6 C18.13,-32.09 16.98,-32.51 15.77,-32.81 C9.43,-34.5 3.32,-29.19 1.63,-23.26 C0.3,-18.49 0.91,-13.96 2.84,-9.43 C4.47,-5.5 9.73,-1.39 14.14,-1.69 C15.89,-1.81 17.64,-2.18 19.28,-2.78 C18.43,2.96 15.77,4.47 10.64,1.99 C5.08,-0.66 4.47,4.23 7.37,6.53 C10.15,8.76 17.52,10.94 21.09,10.57 C29.67,9.73 30.51,-0.54 30.51,-7.31 C30.51,-11.3 30.64,-15.23 30.88,-19.22 C31,-21.69 31.3,-24.35 31.18,-26.83z M20,-16.68 C18.67,-15.35 17.28,-14.08 15.65,-13.11 C14.93,-12.69 10.21,-10.09 9.73,-11.48 C8.64,-14.38 11.78,-19.09 14.08,-20.6 C15.47,-21.51 18.31,-21.33 19.82,-21.03 C19.94,-19.58 20,-18.13 20,-16.68z"/><g opacity="1" transform="matrix(0.6000000238418579,0,0,0.6000000238418579,0,0)"/></g></g></g><g stroke-linecap="butt" stroke-linejoin="round" stroke-miterlimit="4" transform="matrix(1,0,0.11380106955766678,1,77.30999755859375,18.668968200683594)" opacity="1" style="display: inherit;"><g><g transform="matrix(1,0,0,1,0,0)" opacity="1" style="display: block;"><path d=" M16.31,-9.06 C14.14,-14.8 7.43,-13.41 5.74,-11.9 C4.41,-10.7 2.42,-7.73 2.6,-4.95 C2.84,-0.79 7.07,0.85 9.55,0.85 C14.02,0.85 17.7,-5.38 16.31,-9.06z"/><g opacity="1" transform="matrix(0.6000000238418579,0,0,0.6000000238418579,0,0)"/></g></g></g><g stroke-linecap="butt" stroke-linejoin="round" stroke-miterlimit="4" transform="matrix(1,0,0.11380106955766678,1,95.91000366210938,18.668968200683594)" opacity="1" style="display: inherit;"><g><g transform="matrix(1,0,0,1,0,0)" opacity="1" style="display: block;"><path d=" M16.31,-9.06 C14.14,-14.8 7.43,-13.41 5.74,-11.9 C4.41,-10.7 2.42,-7.73 2.6,-4.95 C2.84,-0.79 7.07,0.85 9.55,0.85 C14.02,0.85 17.7,-5.38 16.31,-9.06z"/><g opacity="1" transform="matrix(0.6000000238418579,0,0,0.6000000238418579,0,0)"/></g></g></g><g stroke-linecap="butt" stroke-linejoin="round" stroke-miterlimit="4" transform="matrix(1,0,0.11380106955766678,1,114.510009765625,18.668968200683594)" opacity="1" style="display: inherit;"><g><g transform="matrix(1,0,0,1,0,0)" opacity="1" style="display: block;"><path d=" M16.31,-9.06 C14.14,-14.8 7.43,-13.41 5.74,-11.9 C4.41,-10.7 2.42,-7.73 2.6,-4.95 C2.84,-0.79 7.07,0.85 9.55,0.85 C14.02,0.85 17.7,-5.38 16.31,-9.06z"/><g opacity="1" transform="matrix(0.6000000238418579,0,0,0.6000000238418579,0,0)"/></g></g></g><g stroke-linecap="butt" stroke-linejoin="round" stroke-miterlimit="4" style="display: inherit;"><g><g style="display: none;"/></g></g></g></g></svg>